<svg xmlns="http://www.w3.org/2000/svg" width="48" height="48" viewBox="0 0 48 48">
  <path fill="#00ACEC" d="M48,18.2827851 L48,41.302759 C47.9962891,44.9999707 45.0651304,47.9962067 41.448221,48 L41.448221,48 L6.55177895,48 C2.93486958,47.9962067 0.00371092225,44.9999707 0,41.302759 L0,41.302759 L0,18.2827851 L48,18.2827851 Z M45,21 L3,21 L3,41 C3.00185,42.7352713 4.59924291,44.9981692 6.35273551,45 L6.35273551,45 L42,45 C43.7534926,44.9981692 44.99815,42.7352713 45,41 L45,41 L45,21 Z M44.212257,-0.00732617531 L44.9884591,2.88949951 L0.832104962,14.7221791 L0.0559028584,11.8253534 L44.212257,-0.00732617531 Z"/>
</svg>
