<?xml version="1.0" standalone="no"?><!DOCTYPE svg PUBLIC "-//W3C//DTD SVG 1.1//EN" "http://www.w3.org/Graphics/SVG/1.1/DTD/svg11.dtd"><svg t="1619418368989" class="icon" viewBox="0 0 1024 1024" version="1.1" xmlns="http://www.w3.org/2000/svg" p-id="4019" xmlns:xlink="http://www.w3.org/1999/xlink" width="200" height="200"><defs><style type="text/css"></style></defs><path d="M458.365754 21.103639l-0.302837 0.282306-15.578145 15.157253-19.218607 19.062055-30.617343 31.453995A2396.760541 2396.760541 0 0 0 264.271559 231.901353C140.593404 384.128321 75.067669 508.554586 75.067669 606.201584 75.067669 837.080221 271.505003 1024 512 1024S948.932331 837.080221 948.932331 606.201584c0-90.905023-56.766556-204.805133-164.110757-342.752561l-3.391519-4.34366-21.597674-27.012812-0.124471-0.152701A2385.891769 2385.891769 0 0 0 635.25213 91.197594l-4.047238-4.217905-23.321022-24.062717-20.481284-20.578807-21.412892-20.829032-0.257925-0.242526c-30.17592-28.29217-77.105404-28.36403-107.366015-0.162968zM513.003469 77.377444l20.264421 19.712641 19.72804 19.821714 22.815438 23.544301 3.933033 4.097283a2308.767118 2308.767118 0 0 1 116.725734 131.684091l3.491609 4.266666 21.084391 26.369925-0.119338-0.153985C820.60383 434.055378 871.93985 536.237233 871.93985 606.202867 871.93985 793.679559 710.804852 947.007519 512 947.007519S152.06015 793.679559 152.06015 606.201584c0-74.905985 58.652872-186.279459 171.906246-325.675629l3.592982-4.388572a2319.344602 2319.344602 0 0 1 120.59974-135.724912l29.784541-30.599378 18.652712-18.497444 14.343699-13.95617-0.083408 0.069293a1.615559 1.615559 0 0 1 2.073664-0.112922l0.073143 0.06031z" fill="currentColor" p-id="4020"></path><path d="M643.282446 585.784461c21.26019 0 38.496241 17.234767 38.496241 38.496241 0 21.048461-16.89215 38.151058-37.85977 38.491108l-0.636471 0.005132H379.18797c-21.261474 0-38.496241-17.234767-38.496241-38.49624 0-21.048461 16.89215-38.151058 37.85977-38.491108l0.636471-0.005133h264.094476z" fill="currentColor" p-id="4021"></path></svg>
