<?xml version="1.0" standalone="no"?><!DOCTYPE svg PUBLIC "-//W3C//DTD SVG 1.1//EN" "http://www.w3.org/Graphics/SVG/1.1/DTD/svg11.dtd"><svg t="1619420281960" class="icon" viewBox="0 0 2022 1024" version="1.1" xmlns="http://www.w3.org/2000/svg" p-id="6709" xmlns:xlink="http://www.w3.org/1999/xlink" width="394.921875" height="200"><defs><style type="text/css"></style></defs><path d="M1384.369426 0C1195.190495 0 1012.244277 75.484515 879.899881 210.112634c-4.283564 1.946614-8.562059 6.225109-12.455287 10.506138-180.611802 193.381386-485.396277 201.553109-678.853703 21.012278-21.017347-19.065663-40.093149-42.024554-56.829465-64.980911-27.247525-27.237386-71.621703-27.237386-100.815842 0-22.96396 22.956356-27.247525 56.809188-12.455287 84.046574 203.966099 275.09101 592.827564 331.900198 868.027564 126.066059 22.96396-19.065663 46.320792-37.74099 67.340674-58.753267 4.283564-1.944079 8.562059-6.225109 12.455287-10.506139C1073.357307 203.887525 1224.77497 138.909149 1382.425347 138.909149c210.193743 4.278495 403.651168 119.84095 504.467009 302.716198 14.792238 35.799446 56.832 52.530693 92.641585 35.799445 35.812119-14.787168 52.55097-56.809188 35.812118-92.606099-1.946614-4.28103-4.283564-8.559525-6.227643-12.452752C1884.943208 145.134257 1645.16499 2.334416 1384.366891 0z" fill="currentColor" p-id="6710"></path><path d="M1379.300119 511.452515c-189.176396 0-372.125149 75.48705-504.469545 210.115168l-12.455287 10.503604c-180.611802 193.383921-485.396277 201.555644-678.853703 21.012277-21.017347-19.065663-40.093149-42.024554-56.829465-64.980911-22.96396-31.515881-67.340673-37.74099-96.534812-14.784633-31.531089 22.956356-37.756198 67.315327-12.455287 98.831208 203.966099 275.093545 592.830099 331.900198 868.027564 126.068594 22.96396-19.065663 46.320792-37.74099 67.340673-58.753268 4.283564-1.946614 8.564594-6.227644 12.455288-10.506138 107.043485-113.618376 258.463683-178.596752 416.10899-178.596753 210.196277 4.28103 403.653703 119.843485 504.469544 302.718733 14.789703 35.796911 56.829465 52.528158 92.641584 35.796911 35.809584-16.731248 52.548436-56.809188 35.809585-92.606099-1.946614-4.278495-4.283564-8.559525-6.227644-12.450218-128.453703-225.287604-366.282772-368.087446-629.03002-372.36594z" fill="currentColor" p-id="6711"></path></svg>
