<?xml version="1.0" standalone="no"?><!DOCTYPE svg PUBLIC "-//W3C//DTD SVG 1.1//EN" "http://www.w3.org/Graphics/SVG/1.1/DTD/svg11.dtd"><svg t="1619420372125" class="icon" viewBox="0 0 4025 1024" version="1.1" xmlns="http://www.w3.org/2000/svg" p-id="6974" xmlns:xlink="http://www.w3.org/1999/xlink" width="786.1328125" height="200"><defs><style type="text/css"></style></defs><path d="M3955.82802 927.29001c-66.620532 37.943488-150.280828 17.034719-188.239449-50.337419v-3.869005c-200.638424-367.822818-585.647291-597.804138-1003.968945-602.455015-313.737458 0-610.435153 129.321616-828.118385 355.433931-8.519882 8.514837-17.039764 12.388887-24.787862 20.908769-477.194089 489.396335-1258.828926 497.911172-1744.547941 20.903724-45.701675-45.686542-87.539389-92.144867-125.492965-142.482286-54.226601-54.201379-54.226601-142.482286 0-200.557714 54.226601-58.852256 142.537773-54.206424 200.633379 0 8.524926 8.519882 17.044808 20.908768 24.792907 29.423606 313.737458 422.029241 911.77868 514.179153 1334.746167 200.562759 45.706719-33.297655 87.539389-71.241143 129.372059-113.05868 8.524926-8.519882 17.039764-12.388887 24.787862-20.908769C2018.389754 152.924059 2382.489852 2.698719 2758.973793 2.698719c522.895764 3.874049 1000.089852 288.838621 1254.954877 744.165517 25.56469 68.143921 4.650877 147.128118-58.095606 180.425774z" fill="currentColor" p-id="6975"></path></svg>
