<?xml version="1.0" standalone="no"?><!DOCTYPE svg PUBLIC "-//W3C//DTD SVG 1.1//EN" "http://www.w3.org/Graphics/SVG/1.1/DTD/svg11.dtd"><svg t="1619419689710" class="icon" viewBox="0 0 1024 1024" version="1.1" xmlns="http://www.w3.org/2000/svg" p-id="5364" xmlns:xlink="http://www.w3.org/1999/xlink" width="200" height="200"><defs><style type="text/css"></style></defs><path d="M952.526174 0.88655c28.072719 0 50.883866 22.530749 51.344323 50.494884V933.888c0 28.355866-22.987082 51.344322-51.344323 51.344322-28.072719 0-50.883866-22.530749-51.337449-50.494883l-0.006873-0.849439V103.57382H71.473826C43.401106 103.575195 20.58996 81.047195 20.129503 53.081686V52.230872C20.129503 24.158153 42.660252 1.347007 70.624387 0.88655H952.526174z" fill="currentColor" p-id="5365"></path><path d="M120.411404 185.376988c22.545868 0 40.86516 18.093874 41.229401 40.551774l0.005498 0.683125c0 284.82182 228.724489 516.263689 512.632269 520.864129l8.620843 0.068725h2.819092c22.774035 0 41.234899 18.462239 41.2349 41.234899 0 22.545868-18.093874 40.866534-40.553149 41.2349h-3.500843c-333.421272 0-603.72291-270.147694-603.72291-603.404027 0-22.77266 18.462239-41.234899 41.234899-41.2349z" fill="currentColor" p-id="5366"></path><path d="M806.71957 760.203855c15.953783 15.944161 16.113224 41.704977 0.4797 57.845691l-0.478325 0.485198L631.093262 994.063463c-16.107726 16.099479-42.21629 16.091232-58.314395-0.016494-15.937289-15.94691-16.089858-41.695356-0.461831-57.829197l0.478325-0.485198 146.445745-146.3619L572.793987 643.007399c-15.94691-15.937289-16.113224-41.685734-0.494819-57.827823l0.478325-0.486572c15.937289-15.94691 41.685734-16.113224 57.829197-0.494819l0.485197 0.478325 175.627683 175.527345z" fill="currentColor" p-id="5367"></path></svg>
