<?xml version="1.0" standalone="no"?><!DOCTYPE svg PUBLIC "-//W3C//DTD SVG 1.1//EN" "http://www.w3.org/Graphics/SVG/1.1/DTD/svg11.dtd"><svg t="1619419308741" class="icon" viewBox="0 0 1057 1024" version="1.1" xmlns="http://www.w3.org/2000/svg" p-id="4288" xmlns:xlink="http://www.w3.org/1999/xlink" width="206.4453125" height="200"><defs><style type="text/css"></style></defs><path d="M561.612403 365.147287c83.662388 0 151.483204 67.820817 151.483204 151.483204 0 82.82493-66.471359 150.125809-148.97877 151.463359L561.612403 668.113695H42.838656c-21.922067 0-39.689922-17.769178-39.689922-39.689922 0-21.701127 17.414615-39.334036 39.032393-39.684631l0.656206-0.005292H561.612403c39.822222 0 72.103359-32.281137 72.103359-72.103359 0-39.424-31.639483-71.456413-70.911338-72.094098L561.612403 444.527132h-40.418894c-21.920744 0-39.689922-17.769178-39.689922-39.689923 0-21.701127 17.415938-39.334036 39.033715-39.68463l0.656207-0.005292H561.612403zM450.938377 1024c72.336207 0 130.976744-58.640537 130.976744-130.976744 0-71.61385-57.473654-129.801922-128.810997-130.959545l-2.165747-0.017199H42.838656c-21.919421 0-39.689922 17.769178-39.689922 39.689922 0 21.701127 17.415938 39.334036 39.033716 39.684631l0.656206 0.005292h408.101044c28.497364 0 51.596899 23.099535 51.596899 51.596899 0 28.211597-22.640455 51.13385-50.743565 51.590284l-0.853334 0.006615H417.934884c-21.920744 0-39.689922 17.769178-39.689923 39.689923 0 21.701127 17.415938 39.334036 39.033716 39.68463l0.656207 0.005292h33.004816z" fill="currentColor" p-id="4289"></path><path d="M531.485106 1.092796c155.367525 0 293.08891 93.40891 352.438574 233.100238l0.480248 1.148361 3.128889 1.426192c100.546481 46.595969 167.445168 147.294594 168.858129 260.823648l0.022491 3.666026c0 160.962481-130.485912 291.448393-291.44707 291.448393-21.920744 0-39.689922-17.770501-39.689923-39.689923 0-21.701127 17.415938-39.334036 39.032393-39.68463l0.65753-0.005292c117.120992 0 212.067225-94.946233 212.067225-212.068548 0-88.15661-54.287876-166.102326-134.892817-197.59231l-2.450191-0.939328a39.689922 39.689922 0 0 1-23.047938-22.868011l-0.220941-0.588733C772.900382 160.823566 659.778811 80.472641 531.485106 80.472641c-126.179556 0-237.738667 77.724775-282.776145 193.112641l-1.344165 3.507266a39.689922 39.689922 0 0 1-23.647256 23.349581l-0.596672 0.21168C139.064227 329.552041 81.205581 408.402687 80.058543 498.522625l-0.017199 2.733313c0 21.920744-17.769178 39.689922-39.689923 39.689922-21.920744 0-39.689922-17.769178-39.689922-39.689922 0-117.881716 70.626894-222.270181 176.047297-267.703235l3.201654-1.358719 0.248723-0.578149C239.507514 94.726615 374.289199 3.01908 526.668072 1.123225l4.817034-0.030429z" fill="currentColor" p-id="4290"></path></svg>
