<?xml version="1.0" standalone="no"?><!DOCTYPE svg PUBLIC "-//W3C//DTD SVG 1.1//EN" "http://www.w3.org/Graphics/SVG/1.1/DTD/svg11.dtd"><svg t="1619419904495" class="icon" viewBox="0 0 1490 1024" version="1.1" xmlns="http://www.w3.org/2000/svg" p-id="5768" xmlns:xlink="http://www.w3.org/1999/xlink" width="291.015625" height="200"><defs><style type="text/css"></style></defs><path d="M745.398719 0c31.632151 0 57.336286 25.385944 57.845394 56.896603l0.007714 0.956504v768.609386l73.054975-73.053047c22.366011-22.36794 58.49142-22.591638 81.133198-0.671096l0.682667 0.671096c22.36794 22.366011 22.591638 58.49142 0.671096 81.133198l-0.671096 0.682667-171.814087 171.816015c-22.36794 22.366011-58.493348 22.58971-81.135126 0.671096l-0.682667-0.671096-171.814086-171.816015c-22.593567-22.593567-22.593567-59.222298 0-81.815865 22.366011-22.36794 58.49142-22.591638 81.135126-0.671096l0.680738 0.671096 73.053047 73.051119V57.853107c0-31.952271 25.902765-57.853107 57.853107-57.853107zM1260.291375 0c31.632151 0 57.336286 25.385944 57.845393 56.896603l0.007714 0.956504v768.609386l73.054976-73.053047c22.366011-22.36794 58.49142-22.591638 81.133197-0.671096l0.682667 0.671096c22.36794 22.366011 22.591638 58.49142 0.671096 81.133198l-0.671096 0.682667-171.814087 171.816015c-22.36794 22.366011-58.493348 22.58971-81.135126 0.671096l-0.682666-0.671096-171.814087-171.816015c-22.593567-22.593567-22.593567-59.222298 0-81.815865 22.366011-22.36794 58.49142-22.591638 81.135126-0.671096l0.680738 0.671096 73.053047 73.051119V57.853107c0-31.952271 25.902765-57.853107 57.853108-57.853107zM230.506064 0c31.632151 0 57.336286 25.385944 57.845394 56.896603l0.007713 0.956504v768.609386l73.054976-73.053047c22.366011-22.36794 58.49142-22.591638 81.133198-0.671096l0.682666 0.671096c22.36794 22.366011 22.591638 58.49142 0.671096 81.133198l-0.671096 0.682667-171.814086 171.816015c-22.36794 22.366011-58.493348 22.58971-81.135127 0.671096l-0.682666-0.671096L17.784045 835.225311c-22.593567-22.593567-22.593567-59.222298 0-81.815865 22.366011-22.36794 58.49142-22.591638 81.135126-0.671096l0.680739 0.671096 73.053047 73.051119V57.853107c0-31.952271 25.902765-57.853107 57.853107-57.853107z" fill="currentColor" p-id="5769"></path></svg>
