<?xml version="1.0" standalone="no"?><!DOCTYPE svg PUBLIC "-//W3C//DTD SVG 1.1//EN" "http://www.w3.org/Graphics/SVG/1.1/DTD/svg11.dtd"><svg t="1619417575958" class="icon" viewBox="0 0 1033 1024" version="1.1" xmlns="http://www.w3.org/2000/svg" p-id="3465" xmlns:xlink="http://www.w3.org/1999/xlink" width="201.7578125" height="200"><defs><style type="text/css"></style></defs><path d="M517.483043 111.637085c21.0533 0 38.161781 16.897405 38.501212 37.870839l0.005704 0.636077v722.871805c0 21.267227-17.241115 38.506917-38.506916 38.506917-21.054726 0-38.161781-16.897405-38.502638-37.87084l-0.004279-0.636077V150.144001c0-21.265801 17.239689-38.506917 38.506917-38.506916z" fill="currentColor" p-id="3466"></path><path d="M595.887403 13.274732c13.936651-16.064515 38.257335-17.788769 54.320424-3.853544 15.903357 13.796886 17.753115 37.772433 4.265711 53.836948l-0.413593 0.484902-107.981951 124.46719c-15.200249 17.520647-42.272037 17.696067-57.709033 0.526261l-0.464935-0.526261-107.981951-124.468617c-13.936651-16.063089-12.212397-40.383772 3.850691-54.320423 15.904783-13.796886 39.89887-12.243773 53.8997 3.375773l0.42215 0.477771 78.896394 90.940501 78.896393-90.940501zM438.094616 1010.726523c-13.936651 16.064515-38.257335 17.788769-54.320423 3.852118-15.903357-13.796886-17.753115-37.771007-4.265711-53.835522l0.413593-0.484902 107.981951-124.468616c15.200249-17.519221 42.272037-17.694641 57.709032-0.524835l0.464936 0.524835 107.981951 124.468616c13.936651 16.064515 12.212397 40.383772-3.850692 54.320424-15.904783 13.796886-39.89887 12.245199-53.8997-3.374347l-0.42215-0.477771-78.896393-90.940501-78.896394 90.940501z" fill="currentColor" p-id="3467"></path><path d="M863.961147 312.245285c10.52665 18.232312 4.448262 41.49762-13.545877 52.278131l-0.54908 0.322317-626.024058 361.437328c-18.417716 10.632188-41.968261 4.321332-52.601874-14.096384-10.52665-18.232312-4.446836-41.49762 13.545878-52.27813l0.54908-0.322318 626.024057-361.437328c18.417716-10.632188 41.968261-4.321332 52.601874 14.096384z" fill="currentColor" p-id="3468"></path><path d="M988.349897 330.963925c20.879306 4.036095 34.533573 24.236539 30.496052 45.11727-3.997588 20.671083-23.834355 34.259746-44.491177 30.611573l-0.626094-0.115521-161.78467-31.281878c-22.77185-4.40405-36.460345-27.760634-29.308042-49.715282l0.222484-0.664601 53.801293-155.749068c6.942654-20.102037 28.867352-30.768453 48.969389-23.824372 19.899519 6.874198 30.553099 28.43094 24.02689 48.364688l-0.203944 0.604701-39.308431 113.796495 118.20625 22.855995zM45.633549 693.03733c-20.879306-4.037522-34.533573-24.236539-30.496052-45.11727 3.996162-20.671083 23.834355-34.259746 44.48975-30.611573l0.62752 0.114095 161.783245 31.283304c22.77185 4.402624 36.460345 27.760634 29.308042 49.713856l-0.222484 0.664601-53.799868 155.750494c-6.944081 20.102037-28.868778 30.768453-48.969388 23.824372-19.900945-6.874198-30.553099-28.43094-24.02689-48.366114l0.202518-0.603275 39.308431-113.796495-118.204824-22.855995z" fill="currentColor" p-id="3469"></path><path d="M863.469114 712.607401c-10.525224 18.233738-33.713519 24.601641-52.047089 14.408718l-0.553359-0.31376-626.025483-361.435903c-18.417716-10.633614-24.727145-34.184159-14.093532-52.601874 10.525224-18.232312 33.713519-24.600215 52.04709-14.407291l0.553359 0.31376L849.377009 660.006953c18.417716 10.632188 24.727145 34.182732 14.093532 52.600448z" fill="currentColor" p-id="3470"></path><path d="M909.452078 829.68982c6.944081 20.102037-3.722335 42.026734-23.822946 48.969389-19.900945 6.874198-41.58747-3.51126-48.756887-23.223949l-0.213928-0.598997-53.799867-155.750494c-7.573027-21.923271 5.811692-45.456702 28.399564-50.240117l0.685994-0.139766 161.786097-31.281878c20.879306-4.036095 41.078323 9.616746 45.115844 30.496052 3.996162 20.671083-9.345771 40.674713-29.87281 44.991766l-0.623242 0.125504-118.20625 22.855995 39.308431 113.796495zM124.529942 194.311435c-6.944081-20.102037 3.722335-42.025308 23.824372-48.969389 19.899519-6.874198 41.58747 3.51126 48.755461 23.22395l0.213927 0.598996 53.799868 155.751921c7.573027 21.923271-5.810266 45.455276-28.398138 50.23869l-0.68742 0.139766L60.253341 406.577247c-20.879306 4.037522-41.079749-9.616746-45.115844-30.496052-3.997588-20.671083 9.344345-40.674713 29.871384-44.991766l0.624668-0.125504 118.204824-22.855995-39.308431-113.796495z" fill="currentColor" p-id="3471"></path></svg>
