<?xml version="1.0" standalone="no"?><!DOCTYPE svg PUBLIC "-//W3C//DTD SVG 1.1//EN" "http://www.w3.org/Graphics/SVG/1.1/DTD/svg11.dtd"><svg t="1619420014819" class="icon" viewBox="0 0 1024 1024" version="1.1" xmlns="http://www.w3.org/2000/svg" p-id="6171" xmlns:xlink="http://www.w3.org/1999/xlink" width="200" height="200"><defs><style type="text/css"></style></defs><path d="M462.659091 19.568508l-12.930876 12.572861-16.172257 16.028537-25.558915 26.239015a2000.935333 2000.935333 0 0 0-107.224769 120.894773C196.927471 323.039243 141.794486 427.657819 141.794486 510.816043 141.794486 706.553858 308.295716 864.882343 511.99968 864.882343S882.204874 706.553858 882.204874 510.816043c0-77.455652-47.803307-173.317625-137.980673-289.128332l-2.867968-3.671255-18.147112-22.679399a1991.886157 1991.886157 0 0 0-103.63179-117.141392l-3.714884-3.871435-19.445717-20.051392-17.11798-17.188556-17.907153-17.406702-0.257924-0.242526c-27.319475-25.596128-69.643489-25.915647-97.337661-0.913643l-1.136921 1.047097z m49.309792 59.44071l13.26066 12.89238 16.230001 16.295444 19.027392 19.620234 3.587847 3.737982a1914.778254 1914.778254 0 0 1 96.226403 108.484879l3.132308 3.823956 17.433649 21.786287C763.028315 370.537146 805.212459 454.448613 805.212459 510.816043 805.212459 663.141685 674.025084 787.889928 511.99968 787.889928S218.786901 663.141685 218.786901 510.816043c0-60.403116 48.251146-151.966345 141.666043-266.868541l3.27731-3.999756a1923.369324 1923.369324 0 0 1 96.171225-108.427135l3.469792-3.618643 24.83647-25.498605 15.403615-15.267596 8.357527-8.126549z" fill="currentColor" p-id="6172"></path><path d="M512.358978 290.005647c21.04716 0.020531 38.13306 16.929349 38.452578 37.89695l0.005133 0.636471-0.641604 657.001938c-0.020531 21.261455-17.271965 38.479526-38.534703 38.458994-21.04716-0.020531-38.13306-16.929349-38.452578-37.89695l-0.005133-0.63647 0.641603-657.001938c0.020531-21.261455 17.271965-38.479526 38.534704-38.458995z" fill="currentColor" p-id="6173"></path><path d="M659.930339 488.699972c14.285943-15.746232 38.630944-16.929349 54.377176-2.643407 15.588398 14.143507 16.904968 38.145892 3.066865 53.90239l-0.423459 0.474786-175.799347 193.764244c-14.285943 15.746232-38.630944 16.929349-54.377176 2.643406-15.588398-14.143507-16.904968-38.145892-3.066864-53.902389l0.423458-0.474787 175.799347-193.764243zM369.136405 419.01927c13.653322-16.019555 37.604379-18.077819 53.781768-4.736317l0.487619 0.40806 112.922208 96.240518c16.181239 13.791908 18.118882 38.088148 4.32954 54.27067-13.653322 16.019555-37.604379 18.077819-53.781768 4.736317l-0.487619-0.40806-112.922208-96.240518c-16.181239-13.791908-18.118882-38.088148-4.32954-54.27067z" fill="currentColor" p-id="6174"></path></svg>
