<?xml version="1.0" standalone="no"?><!DOCTYPE svg PUBLIC "-//W3C//DTD SVG 1.1//EN" "http://www.w3.org/Graphics/SVG/1.1/DTD/svg11.dtd"><svg t="1619418173474" class="icon" viewBox="0 0 1024 1024" version="1.1" xmlns="http://www.w3.org/2000/svg" p-id="3749" xmlns:xlink="http://www.w3.org/1999/xlink" width="200" height="200"><defs><style type="text/css"></style></defs><path d="M511.36 273.92c131.488 0 238.08 106.592 238.08 238.08s-106.592 238.08-238.08 238.08-238.08-106.592-238.08-238.08 106.592-238.08 238.08-238.08z m0 74.3872c-90.40512 0-163.6928 73.28768-163.6928 163.6928S420.95488 675.6928 511.36 675.6928 675.0528 602.40512 675.0528 512 601.76512 348.3072 511.36 348.3072zM512.2304 1.20576c20.33664 0.13824 36.7488 16.57088 36.9408 36.83072l0.00128 0.6144-0.61952 91.74528c-0.13952 20.54016-16.90368 37.08032-37.44384 36.94208-20.33664-0.13824-36.7488-16.57088-36.9408-36.82944v-0.6144l0.61824-91.74528c0.13952-20.54144 16.90368-37.0816 37.44512-36.94336zM1022.464 512.56064c-0.13824 20.33664-16.57088 36.7488-36.83072 36.9408l-0.6144 0.00128-91.74528-0.61952c-20.54016-0.13952-37.08032-16.90368-36.9408-37.44384 0.13696-20.33664 16.5696-36.7488 36.82944-36.9408l0.6144-0.00128 91.744 0.61952c20.54144 0.13952 37.0816 16.90368 36.94336 37.44384zM872.45824 873.58208c-14.4768 14.28224-37.7024 14.26944-52.16256 0.07936l-0.4352-0.4352-64.4352-65.31072c-14.42688-14.62272-14.26816-38.17216 0.35456-52.60032 14.4768-14.28096 37.7024-14.26816 52.16384-0.0768l0.4352 0.43392 64.4352 65.31072c14.4256 14.62272 14.26688 38.17216-0.35584 52.59904zM511.10912 1022.79424c-20.33664-0.13824-36.7488-16.57088-36.9408-36.83072v-0.6144l0.61824-91.74528c0.13952-20.54016 16.90368-37.08032 37.44512-36.94208 20.33536 0.13824 36.7488 16.57088 36.9408 36.82944v0.6144l-0.61952 91.74528c-0.13952 20.54144-16.90368 37.0816-37.44384 36.94336zM150.08768 872.78848c-14.28224-14.4768-14.26944-37.7024-0.07808-52.16384l0.43392-0.4352 65.31072-64.4352c14.624-14.4256 38.17216-14.26688 52.60032 0.35584 14.28096 14.4768 14.26816 37.7024 0.0768 52.16384l-0.43264 0.4352-65.312 64.4352c-14.62272 14.4256-38.17216 14.26688-52.59904-0.35584zM0.8768 511.43936c0.13824-20.33664 16.5696-36.7488 36.82944-36.9408l0.6144-0.00128 91.74528 0.61952c20.54144 0.13952 37.08032 16.90368 36.94208 37.44384-0.13824 20.33664-16.5696 36.7488-36.82944 36.9408l-0.6144 0.00128-91.74528-0.61952C17.27744 548.74368 0.73728 531.97952 0.8768 511.43936zM150.88128 150.41792c14.4768-14.28224 37.7024-14.26944 52.16384-0.07936l0.4352 0.4352 64.4352 65.31072c14.4256 14.62272 14.26688 38.17216-0.35456 52.60032-14.4768 14.28096-37.70368 14.26816-52.16384 0.0768l-0.4352-0.43392-64.4352-65.31072c-14.42688-14.62272-14.26816-38.17216 0.35456-52.59904zM873.25312 151.21152c14.28096 14.4768 14.26816 37.7024 0.0768 52.16384l-0.43392 0.4352-65.31072 64.4352c-14.62272 14.4256-38.17216 14.26688-52.59904-0.35584-14.28224-14.4768-14.26944-37.7024-0.07936-52.16384l0.4352-0.4352 65.31072-64.4352c14.62272-14.4256 38.17216-14.26688 52.60032 0.35584z" fill="currentColor" p-id="3750"></path></svg>
