<?xml version="1.0" standalone="no"?><!DOCTYPE svg PUBLIC "-//W3C//DTD SVG 1.1//EN" "http://www.w3.org/Graphics/SVG/1.1/DTD/svg11.dtd"><svg t="1619419574821" class="icon" viewBox="0 0 1024 1024" version="1.1" xmlns="http://www.w3.org/2000/svg" p-id="4961" xmlns:xlink="http://www.w3.org/1999/xlink" width="200" height="200"><defs><style type="text/css"></style></defs><path d="M295.061333 580.044351l0.357053 0.352561c95.474526 95.474526 248.537825 98.263579 347.377403 8.364913l-63.033263-36.392421c-14.366316-8.294175-19.383018-26.564491-11.352701-41.010527l0.247017-0.435649c8.295298-14.367439 26.565614-19.38414 41.010526-11.353824l0.437895 0.247017 127.001825 73.326035c14.367439 8.294175 19.38414 26.565614 11.352701 41.010526l-0.247017 0.436772-73.324912 127.002948c-8.378386 14.511158-26.93614 19.48407-41.447299 11.104561-14.367439-8.294175-19.38414-26.564491-11.352701-41.009403l0.247017-0.437895 30.612211-53.006597c-121.932351 85.715088-291.431298 74.069333-400.437895-34.937263-11.848982-11.848982-11.848982-31.060211 0-42.909193 11.731088-11.731088 30.676211-11.84786 42.55214-0.352561z" fill="currentColor" p-id="4962"></path><path d="M485.128982 26.714947c14.606596-14.607719 38.197895-14.753684 52.986386-0.442386l0.442386 0.442386 458.727299 458.727299c14.753684 14.753684 14.753684 38.675088 0 53.428772-14.606596 14.607719-38.197895 14.753684-52.983018 0.437894l-0.445754-0.437894L511.842807 106.857544 80.143719 538.557754c-14.606596 14.606596-38.197895 14.752561-52.987508 0.441264l-0.441264-0.441264c-14.607719-14.606596-14.753684-38.197895-0.442386-52.987508l0.442386-0.441264L485.128982 26.714947z" fill="currentColor" p-id="4963"></path></svg>
