<?xml version="1.0" standalone="no"?><!DOCTYPE svg PUBLIC "-//W3C//DTD SVG 1.1//EN" "http://www.w3.org/Graphics/SVG/1.1/DTD/svg11.dtd"><svg t="1619419430395" class="icon" viewBox="0 0 1024 1024" version="1.1" xmlns="http://www.w3.org/2000/svg" p-id="4557" xmlns:xlink="http://www.w3.org/1999/xlink" width="200" height="200"><defs><style type="text/css"></style></defs><path d="M512.125283 182.187625c145.650896 0 263.738167 117.942811 263.738168 263.449249 0 86.777928-42.345788 166.428764-111.844834 215.395396l-0.708235 0.490906-0.788774 0.949853a109.086042 109.086042 0 0 1-0.979256 1.140334l-0.995875 1.127551c-16.19224 18.09578-20.990082 34.0643-16.62434 50.494322l0.150852 0.554826c6.518572 23.449728-7.225528 47.729139-30.676535 54.23237-0.891046 0.24801-1.789763 0.466617-2.697428 0.657099l-0.907665 0.181533-180.332664 34.036174c-14.917673 2.81632-29.292025-6.992859-32.107067-21.910531-2.786916-14.766821 6.79982-29.003106 21.46437-32.018857l0.447441-0.08821 169.320509-31.958771-0.035795-0.217328c-4.886052-31.389883 5.701673-61.888719 30.193298-89.673509l0.83991-0.946017a54.038052 54.038052 0 0 0 2.155386-2.563196l0.68011-0.879541 2.752399-3.642167 3.78407-2.556804c57.0717-38.562996 91.938836-102.715765 91.938837-172.805433 0-115.131605-93.460135-208.477963-208.766882-208.477963-115.305468 0-208.765603 93.346357-208.765603 208.477963 0 75.865488 40.908864 144.538687 105.682937 181.337488l1.970017 1.105818c13.278762 7.355925 18.079161 24.085094 10.723236 37.362577-7.357203 13.277483-24.085094 18.079161-37.362577 10.721957-83.221413-46.106846-135.984899-133.700395-135.984898-230.52784 0-145.506437 118.085993-263.449248 263.736888-263.449249zM597.806342 825.0244c18.772055-3.311061 36.674797 9.22367 39.985858 27.997003 3.276544 18.586687-8.97566 36.319401-27.437064 39.883586l-0.561218 0.10355-177.595606 31.317014c-18.772055 3.311061-36.674797-9.22367-39.985858-27.997004-3.276544-18.586687 8.97566-36.319401 27.437064-39.883585l0.561219-0.103551 177.595605-31.317013zM565.695441 940.975461c16.652464-9.278642 37.674507-3.300834 46.953148 13.35163 9.278642 16.652464 3.300834 37.674507-13.35163 46.953149C572.366142 1016.284844 544.675955 1024 516.612474 1024c-28.063481 0-55.754946-7.715156-82.684484-22.71976-16.652464-9.278642-22.630272-30.300684-13.350352-46.953149 9.185318-16.484994 29.88009-22.508824 46.450737-13.625208l0.501133 0.273578C484.523306 950.444584 500.753898 954.966292 516.612474 954.966292c15.559431 0 31.476814-4.352959 48.121608-13.459016l0.961359-0.531815zM795.92797 92.959001c15.613124 11.211586 19.302592 32.852375 8.386317 48.586947l-0.334941 0.475565-42.72036 59.492994c-11.325363 15.770367-33.290866 19.375461-49.062512 8.050097-15.613124-11.211586-19.302592-32.852375-8.386317-48.586946l0.33622-0.475566 42.719081-59.491715c11.326642-15.771645 33.290866-19.375461 49.062512-8.051376zM971.473019 334.225418c6.045563 18.246632-3.686911 37.923795-21.764794 44.241658l-0.549713 0.186647-69.573194 23.050866c-18.430722 6.106926-38.322657-3.883785-44.429583-22.314507-6.045563-18.24791 3.686911-37.925074 21.764794-44.242936l0.549713-0.186647 69.573194-23.050866c18.432-6.106926 38.322657 3.883785 44.429583 22.314507zM971.529268 632.462542c-5.821843 18.319501-25.253553 28.532654-43.597343 23.029133l-0.554826-0.171305-69.851886-22.195616c-18.503591-5.879371-28.738477-25.647301-22.857827-44.150891 5.820564-18.319501 25.252275-28.533933 43.596065-23.030412l0.554826 0.171306 69.851885 22.195615c18.503591 5.880649 28.738477 25.647301 22.857828 44.15217zM52.526981 632.633848c-6.045563-18.246632 3.686911-37.925074 21.764794-44.241658l0.549713-0.187925 69.573194-23.050867c18.430722-6.105648 38.322657 3.885064 44.429583 22.315786 6.045563 18.246632-3.686911 37.925074-21.764794 44.241657l-0.549713 0.186647-69.573194 23.052145c-18.432 6.105648-38.322657-3.885064-44.429583-22.315785zM52.470732 334.396724c5.821843-18.319501 25.253553-28.533933 43.597343-23.030412l0.554826 0.171306 69.851886 22.195615c18.503591 5.880649 28.738477 25.647301 22.857827 44.15217-5.820564 18.319501-25.252275 28.533933-43.596065 23.030412l-0.554826-0.172584-69.851885-22.194337c-18.503591-5.880649-28.738477-25.647301-22.857828-44.15217zM227.926292 93.065109c15.473778-11.402067 37.198941-8.24825 48.80811 6.982631l0.349004 0.465339 43.44777 58.963735c11.518402 15.631021 8.18433 37.63999-7.446692 49.158392-15.475056 11.402067-37.20022 8.24825-48.809388-6.982632l-0.347725-0.465338-43.449049-58.963735c-11.518402-15.631021-8.183051-37.63999 7.446692-49.158392z" fill="currentColor" p-id="4558"></path><path d="M515.065608 704.210297c-18.87177 0.029403-34.230492-15.092814-34.564155-33.891715l-0.006392-0.571446-0.143181-92.497498c-0.029403-19.063531 15.400909-34.542422 34.463161-34.570547 18.873049-0.029403 34.23177 15.092814 34.565433 33.891715l0.005114 0.571446 0.143181 92.497498c0.029403 19.063531-15.39963 34.542422-34.463161 34.570547z" fill="currentColor" p-id="4559"></path><path d="M549.641268 491.004804c12.497658-14.394806 34.299526-15.932724 48.694332-3.433788 14.249069 12.372375 15.898207 33.863591 3.803246 48.259676l-0.370736 0.433378-61.140854 70.418217c-13.62393 15.691106-37.875216 15.84835-51.711361 0.470452l-0.415481-0.470452-61.140853-70.418217c-12.498936-14.394806-10.961019-36.195396 3.433787-48.694332 14.250347-12.372375 35.759461-10.989144 48.315925 3.006801l0.377129 0.428265 35.076794 40.398782 35.078072-40.398782zM511.910512 0.83224c19.220774-0.117613 34.933613 15.212984 35.361878 34.358332l0.008948 0.581673 0.449998 73.210247c0.118891 19.415091-15.523635 35.251935-34.938727 35.372105-19.222052 0.117613-34.93617-15.212984-35.364434-34.358332l-0.007671-0.581673-0.451276-73.210247C476.850337 16.789253 492.494142 0.952409 511.910512 0.83224z" fill="currentColor" p-id="4560"></path></svg>
