<?xml version="1.0" standalone="no"?><!DOCTYPE svg PUBLIC "-//W3C//DTD SVG 1.1//EN" "http://www.w3.org/Graphics/SVG/1.1/DTD/svg11.dtd"><svg t="1619420141227" class="icon" viewBox="0 0 1340 1024" version="1.1" xmlns="http://www.w3.org/2000/svg" p-id="6441" xmlns:xlink="http://www.w3.org/1999/xlink" width="261.71875" height="200"><defs><style type="text/css"></style></defs><path d="M1314.293106 996.172674c-22.134154 12.606429-51.474854 4.117787-63.828216-18.007987-66.660556-122.206272-194.576759-198.617453-333.560877-200.160995-104.236831 0-202.812334 42.964426-275.135895 118.088485-2.830664 2.83234-5.661329 4.117787-8.235575 6.946776-159.831149 159.767463-419.781342 161.054586-579.612491 0-13.898579-13.893552-27.797159-29.07255-38.863397-44.507968-15.184026-20.840327-11.067915-49.912877 8.235574-65.348294 20.848707-15.178998 48.64419-11.062887 65.373434 8.232222 104.238507 140.215935 302.933054 170.832026 443.460713 66.635418 15.184026-11.062887 29.084282-23.670992 42.982861-37.562868l8.235575-6.946776c87.507588-89.01761 208.475339-138.928812 333.559201-138.928811 173.729728 1.285447 332.273755 95.964386 416.950678 247.241532 12.355038 22.641964 4.117787 50.425715-19.559909 64.319266 1.543542 0 0 0 0 0z" fill="currentColor" p-id="6442"></path><path d="M1314.293106 652.966756c-22.134154 12.606429-49.929637 5.659653-62.541093-16.72254v-1.287123c-66.660556-122.206272-194.576759-198.615777-333.560877-200.160995-104.236831 0-202.812334 42.966101-275.135895 118.090161-2.830664 2.830664-5.661329 4.116111-8.235575 6.946775-158.544026 162.599804-418.236124 165.428792-579.612491 6.946776-15.184026-15.178998-29.084282-30.616092-41.694062-47.338632-18.016367-18.009663-18.016367-47.338632 0-66.635417 18.016367-19.553205 47.357067-18.009663 66.65888 0 2.83234 2.830664 5.663005 6.946776 8.237251 9.77744 104.236831 140.214259 302.931378 170.83035 443.459038 66.635418 15.185702-11.064563 29.084282-23.670992 42.98286-37.564544 2.83234-2.828989 5.661329-4.116111 8.235575-6.9451 87.507588-89.01761 208.475339-138.930488 333.560877-138.930487 173.728052 1.287123 332.272079 95.964386 416.949002 247.243208 8.493669 22.640288 1.545218 48.882173-19.301814 59.94506z" fill="currentColor" p-id="6443"></path><path d="M1314.293106 311.30438c-22.134154 12.606429-49.929637 5.659653-62.541093-16.72254v-1.287123c-66.660556-122.206272-194.576759-198.615777-333.560877-200.160995-104.236831 0-202.812334 42.966101-275.135895 118.09016-2.830664 2.830664-5.661329 4.116111-8.235575 6.946776-159.831149 159.767463-419.781342 161.054586-579.612491 0-13.898579-13.893552-27.797159-29.07255-38.865074-44.509643-15.184026-20.838651-11.066239-49.909525 8.237251-65.348295 20.848707-15.178998 48.64419-11.061211 65.373434 8.233899 104.238507 140.472354 302.933054 171.088445 443.202618 66.891836 15.184026-11.062887 29.084282-23.669316 42.982861-37.562867l8.235575-6.946776C671.881427 49.911201 792.849178 0 917.933041 0c173.729728 1.287123 332.273755 95.964386 416.950677 247.241532 12.611457 22.125774 4.117787 51.456419-18.016366 63.804753-1.029028 0.258095-1.029028 0.258095-2.574246 0.258095z" fill="currentColor" p-id="6444"></path></svg>
