<?xml version="1.0" standalone="no"?><!DOCTYPE svg PUBLIC "-//W3C//DTD SVG 1.1//EN" "http://www.w3.org/Graphics/SVG/1.1/DTD/svg11.dtd"><svg t="1619419943188" class="icon" viewBox="0 0 1024 1024" version="1.1" xmlns="http://www.w3.org/2000/svg" p-id="5902" xmlns:xlink="http://www.w3.org/1999/xlink" width="200" height="200"><defs><style type="text/css"></style></defs><path d="M690.637179 95.404942c12.661191-22.9376 41.519787-31.270684 64.458904-18.61101 159.619603 88.098892 260.895479 256.075852 260.895478 441.827935 0 278.552273-225.600095 504.27373-504.031004 504.27373C233.532681 1022.895597 7.93107 797.175656 7.93107 518.621867c0-88.558554 27.391621-176.821286 76.954737-256.288237 46.436504-74.459212 110.858999-138.514584 183.467426-183.025968 22.336853-13.694293 51.545884-6.687099 65.240177 15.649754 13.692776 22.336853 6.687099 51.547401-15.651271 65.240178-60.033707 36.803319-113.880936 90.345624-152.548693 152.34541-40.520059 64.970145-62.580812 136.050916-62.580812 206.078863 0 226.162916 183.13216 409.392166 409.147923 409.392166 226.01728 0 409.14944-183.22925 409.14944-409.392166 0-149.347745-80.565286-284.4672-207.985778-356.591692l-3.876029-2.166329c-22.939117-12.661191-31.272201-41.521304-18.611011-64.458904z" fill="currentColor" p-id="5903"></path><path d="M511.235413 1.104403c25.938299 0 47.014495 20.816782 47.433197 46.656474l0.007586 0.784308v373.433837c0 26.200747-21.240036 47.440782-47.440783 47.440782-25.939816 0-47.016012-20.816782-47.434714-46.656474l-0.006068-0.784308V48.545185c0-26.200747 21.238519-47.440782 47.440782-47.440782z" fill="currentColor" p-id="5904"></path></svg>
