<?xml version="1.0" standalone="no"?><!DOCTYPE svg PUBLIC "-//W3C//DTD SVG 1.1//EN" "http://www.w3.org/Graphics/SVG/1.1/DTD/svg11.dtd"><svg t="1619419658919" class="icon" viewBox="0 0 1024 1024" version="1.1" xmlns="http://www.w3.org/2000/svg" p-id="5228" xmlns:xlink="http://www.w3.org/1999/xlink" width="200" height="200"><defs><style type="text/css"></style></defs><path d="M955.785452 362.662608c20.100646-6.843755 41.94427 3.902478 48.788025 24.004406 12.813457 37.63168 19.426523 77.306233 19.426523 117.830488 0 201.811304-163.599059 365.410363-365.410363 365.410363-158.139434 0-296.844656-101.372155-346.438808-248.921712-6.764295-20.127559 4.067805-41.928891 24.195364-48.694468 19.926348-6.697652 41.493146 3.852496 48.486848 23.594292l0.20762 0.59979c39.147815 116.47199 148.682493 196.525977 273.548976 196.525978 159.341577 0 288.514243-129.172666 288.514243-288.514243 0-32.065682-5.217402-63.368811-15.322834-93.046869-6.843755-20.100646 3.90376-41.94427 24.004406-48.788025zM69.485897 653.818233c-20.101927 6.843755-41.94427-3.902478-48.789306-24.004406C7.884416 592.182148 1.271349 552.506313 1.271349 511.982058c0-201.810023 163.599059-365.410363 365.410363-365.410363 158.139434 0 296.843374 101.373437 346.437527 248.922993 6.766859 20.127559-4.066523 41.928891-24.194083 48.693187-19.926348 6.698934-41.493146-3.851214-48.486848-23.593011l-0.20762-0.601072c-39.147815-116.47199-148.682493-196.525977-273.550257-196.525977-159.341577 0-288.514243 129.172666-288.514243 288.514243 0 32.065682 5.218683 63.370093 15.322833 93.04815 6.843755 20.100646-3.902478 41.94427-24.004405 48.788025z" fill="currentColor" p-id="5229"></path><path d="M475.443584 0C689.08792 0 862.454068 171.452716 862.454068 383.164395c0 157.073141-96.334178 296.380716-240.613087 354.792291-19.681562 7.96772-42.096781-1.52767-50.065782-21.210513-7.88826-19.485477 1.339274-41.649502 20.622258-49.82356l0.588255-0.243504c115.572305-46.788726 192.573517-158.139434 192.573517-283.514714C785.557947 214.113402 646.80787 76.89612 475.442303 76.89612c-26.235675 0-52.011254 3.209131-76.926879 9.4877-20.590218 5.187925-41.48802-7.298723-46.675945-27.888941-5.189207-20.591499 7.297442-41.489302 27.88766-46.675945C410.775229 3.993472 442.860135 0 475.443584 0z" fill="currentColor" p-id="5230"></path><path d="M546.716035 1022.728651c-213.643054 0-387.009202-171.452716-387.009201-383.164396 0-157.073141 96.334178-296.380716 240.613086-354.79229 19.682844-7.96772 42.098063 1.52767 50.065782 21.210513 7.889542 19.485477-1.339274 41.649502-20.622258 49.82356l-0.588255 0.243504c-115.571024 46.788726-192.572235 158.139434-192.572235 283.514713 0 169.050994 138.747514 306.268275 310.113081 306.268276 26.236956 0 52.012536-3.209131 76.926879-9.4877 20.591499-5.187925 41.489302 7.298723 46.675945 27.888941 5.190488 20.590218-7.297442 41.489302-27.88766 46.675945-31.046809 7.82418-63.131715 11.818934-95.715164 11.818934z" fill="currentColor" p-id="5231"></path></svg>
